<?xml version="1.0"?><svg width="640" height="480" xmlns="http://www.w3.org/2000/svg">
 <g>
  <title>Layer 1</title>
  <path d="m0,500l0,-500l500,0l500,0l0,500l0,500l-500,0l-500,0l0,-500zm423,-189l-2.5,16l0,1l0,1l0.299988,0.200012l0.200012,0.299988l0.200012,0.299988l0.299988,0.200012l0.299988,0.200012l0.200012,0.299988l0.200012,0.299988l0.299988,0.200012l0.299988,-0.200012l0.200012,-0.299988l20.5,-5q20.5,-5 28.5,-6q8,-1 32,-0.5q24,0.5 42.5,4.5q18.5,4 23,5.5q4.5,1.5 6.5,2l2,0.5l1.5,0l1.5,0l0.200012,-0.299988l0.299988,-0.200012l0.5,-1l0.5,-1l0,-0.5l0,-0.5l-0.299988,-0.200012l-0.200012,-0.299988l-0.200012,-0.299988l-0.299988,-0.200012l-0.299988,-0.200012l-0.200012,-0.299988l-0.200012,-0.299988l-0.299988,-0.200012l-1.5,-7.5q-1.5,-7.5 -1,-29.5q0.5,-22 4.5,-36q4,-14 5.700012,-17.199997q1.799988,-3.300003 2.799988,-3.600006q1,-0.199997 1.799988,-3.199997q0.700012,-3 7.400024,-12.800003q6.799988,-9.699997 7.799988,-10q1,-0.199997 4.5,-4q3.5,-3.699997 10.5,-9.199997q7,-5.5 17.5,-11q10.5,-5.5 22,-9q11.5,-3.5 37.5,-3.5q26,0 39,3q13,3 14,2.699997q1,-0.199997 1,0.800003q0,1 6,2.5q6,1.5 7.5,3.300003q1.5,1.699997 4.5,2.399994q3,0.800003 3.5,2q0.5,1.300003 2.700012,1.600006q2.299988,0.199997 4.799988,1.699997q2.5,1.5 3.200012,2.699997q0.799988,1.300003 3,2q2.299988,0.800003 3.599976,2.600006q1.200012,1.699997 3,2q1.700012,0.199997 6.400024,3.699997q4.799988,3.5 8.299988,7.300003q3.5,3.699997 12.700012,13q9.299988,9.199997 10.599976,12.199997q1.200012,3 3.400024,5q2.299988,2 2.599976,4q0.200012,2 2.400024,4q2.299988,2 9.299988,18.5q7,16.5 9.5,28q2.5,11.5 2.5,30.5q0,19 -3,31q-3,12 -10,26q-7,14 -18.299988,26.200012q-11.200012,12.299988 -23.200012,19.799988q-12,7.5 -24.5,12q-12.5,4.5 -21,6q-8.5,1.5 -29,1q-20.5,-0.5 -24,-1l-3.5,-0.5l-0.200012,-0.299988l-0.299988,-0.200012l0,1.5l0,1.5l0.5,1l0.5,1l0.5,1.5q0.5,1.5 5,14q4.5,12.5 8.5,31.5q4,19 4,45.5q0,26.5 -4.5,47.5q-4.5,21 -12,39q-7.5,18 -18.5,35.5q-11,17.5 -22.5,30q-11.5,12.5 -26.799988,24.700012q-15.200012,12.299988 -30.200012,20.799988q-15,8.5 -32.5,15q-17.5,6.5 -36,10q-18.5,3.5 -37.5,4q-19,0.5 -34.5,-1.5q-15.5,-2 -33,-7q-17.5,-5 -33.5,-12.5q-16,-7.5 -31.200012,-17.799988q-15.299988,-10.200012 -18,-12.400024q-2.799988,-2.299988 -12.599976,-12q-9.700012,-9.799988 -11,-11q-1.200012,-1.299988 -6.700012,-9q-5.5,-7.799988 -6.5,-8q-1,-0.299988 -3.799988,-4.599976q-2.700012,-4.200012 -3.400024,-5q-0.799988,-0.700012 -6.599976,-11q-5.700012,-10.200012 -6.400024,-12.700012q-0.799988,-2.5 -1.799988,-2.700012q-1,-0.299988 -4.799988,-10q-3.700012,-9.799988 -7.200012,-20.299988q-3.5,-10.5 -5.5,-23q-2,-12.5 -3,-18.5q-1,-6 -1,-22q0,-16 3,-36q3,-20 9.5,-40l6.5,-20l0.5,-1l0.5,-1l0,-1l0,-1l-0.299988,-0.200012l-0.200012,-0.299988l-0.200012,-0.299988l-0.299988,-0.200012l-0.5,-1l-0.5,-1l-0.299988,0.200012l-0.200012,0.299988l-3,0.5q-3,0.5 -23.5,1q-20.5,0.5 -36,-3q-15.5,-3.5 -30.5,-11.200012q-15,-7.799988 -15.199997,-8.799988q-0.300003,-1 -8.600006,-8.799988q-8.199997,-7.700012 -13.199997,-14.400024q-5,-6.799988 -6,-7q-1,-0.299988 -4.199997,-6.599976q-3.300003,-6.200012 -6.300003,-14.200012q-3,-8 -2.699997,-10q0.199997,-2 -0.800003,-2q-1,0 -1.800003,-3.5q-0.699997,-3.5 -0.699997,-29.5q0,-26 4.5,-41.5q4.5,-15.5 10,-26.5q5.5,-11 13.199997,-21.800003q7.800003,-10.699997 10.300003,-14.399994q2.5,-3.800003 5.5,-5.600006q3,-1.699997 3.800003,-3q0.699997,-1.199997 12.199997,-10.699997q11.5,-9.5 28.199997,-18.300003q16.800003,-8.699997 29.300003,-12.199997q12.5,-3.5 29.5,-5q17,-1.5 28,-0.5q11,1 16.5,1.300003q5.5,0.199997 5.700012,1.199997q0.299988,1 6.599976,2.800003q6.200012,1.699997 7,2.399994q0.700012,0.800003 3.400024,1.600006q2.799988,0.699997 5.299988,1.399994q2.5,0.800003 2.700012,1.800003q0.299988,1 3,2.199997q2.799988,1.300003 6.799988,2.800003q4,1.5 5.5,3.800003q1.5,2.199997 12.700012,12.699997q11.299988,10.5 15.799988,17.5q4.5,7 7.200012,12.800003q2.799988,5.699997 6.599976,16q3.700012,10.199997 5.200012,28.199997q1.5,18 -1,34z" stroke-width="0.5px" stroke="#FFFFFF" fill-rule="evenodd" fill="#FFFFFF"/>
  <path d="m423,311l-2.5,16l0,1l0,1l0.299988,0.200012l0.200012,0.299988l0.200012,0.299988l0.299988,0.200012l0.299988,0.200012l0.200012,0.299988l0.200012,0.299988l0.299988,0.200012l0.299988,-0.200012l0.200012,-0.299988l20.5,-5q20.5,-5 28.5,-6q8,-1 32,-0.5q24,0.5 42.5,4.5q18.5,4 23,5.5q4.5,1.5 6.5,2l2,0.5l1.5,0l1.5,0l0.200012,-0.299988l0.299988,-0.200012l0.5,-1l0.5,-1l0,-0.5l0,-0.5l-0.299988,-0.200012l-0.200012,-0.299988l-0.200012,-0.299988l-0.299988,-0.200012l-0.299988,-0.200012l-0.200012,-0.299988l-0.200012,-0.299988l-0.299988,-0.200012l-1.5,-7.5q-1.5,-7.5 -1,-29.5q0.5,-22 4.5,-36q4,-14 5.700012,-17.199997q1.799988,-3.300003 2.799988,-3.600006q1,-0.199997 1.799988,-3.199997q0.700012,-3 7.400024,-12.800003q6.799988,-9.699997 7.799988,-10q1,-0.199997 4.5,-4q3.5,-3.699997 10.5,-9.199997q7,-5.5 17.5,-11q10.5,-5.5 22,-9q11.5,-3.5 37.5,-3.5q26,0 39,3q13,3 14,2.699997q1,-0.199997 1,0.800003q0,1 6,2.5q6,1.5 7.5,3.300003q1.5,1.699997 4.5,2.399994q3,0.800003 3.5,2q0.5,1.300003 2.700012,1.600006q2.299988,0.199997 4.799988,1.699997q2.5,1.5 3.200012,2.699997q0.799988,1.300003 3,2q2.299988,0.800003 3.599976,2.600006q1.200012,1.699997 3,2q1.700012,0.199997 6.400024,3.699997q4.799988,3.5 8.299988,7.300003q3.5,3.699997 12.700012,13q9.299988,9.199997 10.599976,12.199997q1.200012,3 3.400024,5q2.299988,2 2.599976,4q0.200012,2 2.400024,4q2.299988,2 9.299988,18.5q7,16.5 9.5,28q2.5,11.5 2.5,30.5q0,19 -3,31q-3,12 -10,26q-7,14 -18.299988,26.200012q-11.200012,12.299988 -23.200012,19.799988q-12,7.5 -24.5,12q-12.5,4.5 -21,6q-8.5,1.5 -29,1q-20.5,-0.5 -24,-1l-3.5,-0.5l-0.200012,-0.299988l-0.299988,-0.200012l0,1.5l0,1.5l0.5,1l0.5,1l0.5,1.5q0.5,1.5 5,14q4.5,12.5 8.5,31.5q4,19 4,45.5q0,26.5 -4.5,47.5q-4.5,21 -12,39q-7.5,18 -18.5,35.5q-11,17.5 -22.5,30q-11.5,12.5 -26.799988,24.700012q-15.200012,12.299988 -30.200012,20.799988q-15,8.5 -32.5,15q-17.5,6.5 -36,10q-18.5,3.5 -37.5,4q-19,0.5 -34.5,-1.5q-15.5,-2 -33,-7q-17.5,-5 -33.5,-12.5q-16,-7.5 -31.200012,-17.799988q-15.299988,-10.200012 -18,-12.400024q-2.799988,-2.299988 -12.599976,-12q-9.700012,-9.799988 -11,-11q-1.200012,-1.299988 -6.700012,-9q-5.5,-7.799988 -6.5,-8q-1,-0.299988 -3.799988,-4.599976q-2.700012,-4.200012 -3.400024,-5q-0.799988,-0.700012 -6.599976,-11q-5.700012,-10.200012 -6.400024,-12.700012q-0.799988,-2.5 -1.799988,-2.700012q-1,-0.299988 -4.799988,-10q-3.700012,-9.799988 -7.200012,-20.299988q-3.5,-10.5 -5.5,-23q-2,-12.5 -3,-18.5q-1,-6 -1,-22q0,-16 3,-36q3,-20 9.5,-40l6.5,-20l0.5,-1l0.5,-1l0,-1l0,-1l-0.299988,-0.200012l-0.200012,-0.299988l-0.200012,-0.299988l-0.299988,-0.200012l-0.5,-1l-0.5,-1l-0.299988,0.200012l-0.200012,0.299988l-3,0.5q-3,0.5 -23.5,1q-20.5,0.5 -36,-3q-15.5,-3.5 -30.5,-11.200012q-15,-7.799988 -15.199997,-8.799988q-0.300003,-1 -8.600006,-8.799988q-8.199997,-7.700012 -13.199997,-14.400024q-5,-6.799988 -6,-7q-1,-0.299988 -4.199997,-6.599976q-3.300003,-6.200012 -6.300003,-14.200012q-3,-8 -2.699997,-10q0.199997,-2 -0.800003,-2q-1,0 -1.800003,-3.5q-0.699997,-3.5 -0.699997,-29.5q0,-26 4.5,-41.5q4.5,-15.5 10,-26.5q5.5,-11 13.199997,-21.800003q7.800003,-10.699997 10.300003,-14.399994q2.5,-3.800003 5.5,-5.600006q3,-1.699997 3.800003,-3q0.699997,-1.199997 12.199997,-10.699997q11.5,-9.5 28.199997,-18.300003q16.800003,-8.699997 29.300003,-12.199997q12.5,-3.5 29.5,-5q17,-1.5 28,-0.5q11,1 16.5,1.300003q5.5,0.199997 5.700012,1.199997q0.299988,1 6.599976,2.800003q6.200012,1.699997 7,2.399994q0.700012,0.800003 3.400024,1.600006q2.799988,0.699997 5.299988,1.399994q2.5,0.800003 2.700012,1.800003q0.299988,1 3,2.199997q2.799988,1.300003 6.799988,2.800003q4,1.5 5.5,3.800003q1.5,2.199997 12.700012,12.699997q11.299988,10.5 15.799988,17.5q4.5,7 7.200012,12.800003q2.799988,5.699997 6.599976,16q3.700012,10.199997 5.200012,28.199997q1.5,18 -1,34z" stroke-width="0.5px" stroke="#ffff56" fill-rule="evenodd" fill="#ffff56"/>
 </g>
</svg>